<svg width="30" height="30" viewBox="0 0 30 30" fill="none" xmlns="http://www.w3.org/2000/svg">
<path class='spinner-out' d="M27.75 15C28.9926 15 30.0173 16.013 29.8316 17.2416C29.4741 19.6069 28.5541 21.8639 27.1353 23.8168C25.2733 26.3795 22.6479 28.287 19.6353 29.2658C16.6226 30.2447 13.3774 30.2447 10.3647 29.2658C7.35209 28.287 4.72667 26.3795 2.86474 23.8168C1.00282 21.2541 -2.76928e-07 18.1677 0 15C2.76928e-07 11.8323 1.00282 8.74593 2.86475 6.18322C4.72667 3.62051 7.3521 1.71302 10.3647 0.734152C12.6605 -0.0117797 15.0913 -0.189286 17.4513 0.201633C18.6772 0.4047 19.324 1.69221 18.94 2.87403V2.87403C18.556 4.05585 17.2833 4.6762 16.0469 4.55231C14.6078 4.40813 13.1462 4.56199 11.7553 5.01391C9.64647 5.69911 7.80867 7.03435 6.50532 8.82825C5.20198 10.6222 4.5 12.7826 4.5 15C4.5 17.2174 5.20198 19.3778 6.50532 21.1717C7.80867 22.9656 9.64647 24.3009 11.7553 24.9861C13.8642 25.6713 16.1358 25.6713 18.2447 24.9861C20.3535 24.3009 22.1913 22.9656 23.4947 21.1717C24.3543 19.9886 24.9523 18.646 25.2598 17.2329C25.5241 16.0186 26.5074 15 27.75 15V15Z" fill="#31D79B"/>
<path class='spinner-in' d="M21.0273 19.5333C21.5918 19.984 21.6847 20.8118 21.1482 21.2971C20.1185 22.2287 18.8734 22.9078 17.5135 23.27C15.7276 23.7455 13.8352 23.6499 12.1076 22.9967C10.3801 22.3436 8.90597 21.1665 7.89663 19.6341C6.88728 18.1018 6.39451 16.2928 6.48894 14.4665C6.58337 12.6402 7.26014 10.8904 8.42227 9.46776C9.58439 8.04513 11.1722 7.02278 12.9581 6.54722C14.7441 6.07165 16.6364 6.16729 18.364 6.82044C19.6807 7.31825 20.8502 8.12045 21.7789 9.15233C22.2607 9.68765 22.0812 10.501 21.4726 10.8929V10.8929C20.8652 11.284 20.0617 11.1023 19.5475 10.5994C18.9461 10.0111 18.2245 9.54896 17.4256 9.24688C16.2162 8.78968 14.8916 8.72273 13.6414 9.05563C12.3913 9.38852 11.2798 10.1042 10.4663 11.1C9.65284 12.0958 9.1791 13.3207 9.113 14.5991C9.04691 15.8775 9.39185 17.1438 10.0984 18.2165C10.8049 19.2891 11.8368 20.1131 13.0461 20.5703C14.2554 21.0275 15.58 21.0944 16.8302 20.7616C17.6537 20.5423 18.417 20.1569 19.0746 19.6348C19.6417 19.1846 20.4629 19.0826 21.0273 19.5333V19.5333Z" fill="#A1A1A1"/>
</svg>
