<svg width="24" height="24" viewBox="0 0 24 24" fill="none" xmlns="http://www.w3.org/2000/svg">
<path fill="current" d="M16.999 21.0001V19.0001C16.999 17.9393 16.5776 16.9218 15.8274 16.1717C15.0773 15.4216 14.0599 15.0001 12.999 15.0001H4.99902C3.93816 15.0001 2.92074 15.4216 2.1706 16.1717C1.42045 16.9218 0.999023 17.9393 0.999023 19.0001V21.0001" stroke-width="1.99832" stroke-linecap="round" stroke-linejoin="round"/>
<path fill="current" d="M9 11.0001C11.2091 11.0001 13 9.20926 13 7.00012C13 4.79098 11.2091 3.00012 9 3.00012C6.79086 3.00012 5 4.79098 5 7.00012C5 9.20926 6.79086 11.0001 9 11.0001Z" stroke-width="1.99832" stroke-linecap="round" stroke-linejoin="round"/>
<path fill="current" d="M23 21V19C22.9993 18.1137 22.7044 17.2528 22.1614 16.5523C21.6184 15.8519 20.8581 15.3516 20 15.13" stroke-width="1.99832" stroke-linecap="round" stroke-linejoin="round"/>
<path fill="current" d="M16 3.13C16.8604 3.35031 17.623 3.85071 18.1676 4.55232C18.7122 5.25392 19.0078 6.11683 19.0078 7.005C19.0078 7.89318 18.7122 8.75608 18.1676 9.45769C17.623 10.1593 16.8604 10.6597 16 10.88" stroke-width="1.99832" stroke-linecap="round" stroke-linejoin="round"/>
</svg>
